<mxfile host="65bd71144e" scale="1" border="30">
    <diagram id="lD9RN59uFm-hQWqidAp6" name="第 1 页">
        <mxGraphModel dx="1502" dy="863" grid="0" gridSize="10" guides="1" tooltips="1" connect="1" arrows="1" fold="1" page="1" pageScale="1" pageWidth="1654" pageHeight="2336" background="#FFFFFF" math="0" shadow="0">
            <root>
                <mxCell id="0"/>
                <mxCell id="1" parent="0"/>
                <mxCell id="66" style="edgeStyle=orthogonalEdgeStyle;rounded=0;orthogonalLoop=1;jettySize=auto;html=1;entryX=0.5;entryY=0;entryDx=0;entryDy=0;fontSize=12;endArrow=none;endFill=0;endSize=4;dashed=1;strokeColor=#A7BFC9;" parent="1" source="47" target="48" edge="1">
                    <mxGeometry relative="1" as="geometry"/>
                </mxCell>
                <mxCell id="44" style="edgeStyle=orthogonalEdgeStyle;rounded=1;orthogonalLoop=1;jettySize=auto;html=1;entryX=0.5;entryY=0;entryDx=0;entryDy=0;dashed=1;fontFamily=Georgia;endArrow=none;endFill=0;strokeColor=#A7BFC9;strokeWidth=1;" parent="1" source="35" target="39" edge="1">
                    <mxGeometry relative="1" as="geometry"/>
                </mxCell>
                <mxCell id="35" value="&lt;div style=&quot;font-size: 10.5pt&quot;&gt;SchedulableBuilder&lt;/div&gt;" style="rounded=0;whiteSpace=wrap;html=1;strokeColor=#FFFFFF;fillColor=#EDF2F4;fontStyle=1;fontFamily=Georgia;" parent="1" vertex="1">
                    <mxGeometry x="816" y="70" width="185" height="60" as="geometry"/>
                </mxCell>
                <mxCell id="43" style="edgeStyle=orthogonalEdgeStyle;rounded=1;orthogonalLoop=1;jettySize=auto;html=1;entryX=0.5;entryY=0;entryDx=0;entryDy=0;dashed=1;fontFamily=Georgia;endArrow=none;endFill=0;strokeColor=#A7BFC9;strokeWidth=1;" parent="1" source="37" target="40" edge="1">
                    <mxGeometry relative="1" as="geometry"/>
                </mxCell>
                <mxCell id="37" value="&lt;div style=&quot;font-size: 10.5pt&quot;&gt;TaskManager&lt;/div&gt;" style="rounded=0;whiteSpace=wrap;html=1;strokeColor=#FFFFFF;fillColor=#EDF2F4;fontStyle=1;fontFamily=Georgia;" parent="1" vertex="1">
                    <mxGeometry x="566" y="70" width="185" height="60" as="geometry"/>
                </mxCell>
                <mxCell id="42" style="edgeStyle=orthogonalEdgeStyle;rounded=1;orthogonalLoop=1;jettySize=auto;html=1;entryX=0.5;entryY=0;entryDx=0;entryDy=0;fontFamily=Georgia;strokeColor=#A7BFC9;endArrow=none;endFill=0;dashed=1;" parent="1" source="38" target="41" edge="1">
                    <mxGeometry relative="1" as="geometry"/>
                </mxCell>
                <mxCell id="38" value="&lt;div style=&quot;font-size: 10.5pt&quot;&gt;TaskScheduler&lt;/div&gt;" style="rounded=0;whiteSpace=wrap;html=1;strokeColor=#FFFFFF;fillColor=#EDF2F4;fontStyle=1;fontFamily=Georgia;" parent="1" vertex="1">
                    <mxGeometry x="316" y="70" width="185" height="60" as="geometry"/>
                </mxCell>
                <mxCell id="39" value="&lt;div style=&quot;font-size: 10.5pt&quot;&gt;SchedulableBuilder&lt;br&gt;&lt;/div&gt;" style="rounded=0;whiteSpace=wrap;html=1;strokeColor=#FFFFFF;fillColor=#EDF2F4;fontStyle=1;fontFamily=Georgia;" parent="1" vertex="1">
                    <mxGeometry x="816" y="1477" width="185" height="60" as="geometry"/>
                </mxCell>
                <mxCell id="40" value="&lt;div style=&quot;font-size: 10.5pt&quot;&gt;TaskManager&lt;br&gt;&lt;/div&gt;" style="rounded=0;whiteSpace=wrap;html=1;strokeColor=#FFFFFF;fillColor=#EDF2F4;fontStyle=1;fontFamily=Georgia;" parent="1" vertex="1">
                    <mxGeometry x="566" y="1477" width="185" height="60" as="geometry"/>
                </mxCell>
                <mxCell id="41" value="&lt;div style=&quot;font-size: 10.5pt&quot;&gt;TaskScheduler&lt;br&gt;&lt;/div&gt;" style="rounded=0;whiteSpace=wrap;html=1;strokeColor=#FFFFFF;fillColor=#EDF2F4;fontStyle=1;fontFamily=Georgia;" parent="1" vertex="1">
                    <mxGeometry x="316" y="1477" width="185" height="60" as="geometry"/>
                </mxCell>
                <mxCell id="47" value="&lt;div style=&quot;font-size: 10.5pt&quot;&gt;DAGScheduler&lt;/div&gt;" style="rounded=0;whiteSpace=wrap;html=1;strokeColor=#FFFFFF;fillColor=#EDF2F4;fontStyle=1;fontFamily=Georgia;" parent="1" vertex="1">
                    <mxGeometry x="66" y="70" width="185" height="60" as="geometry"/>
                </mxCell>
                <mxCell id="48" value="&lt;div style=&quot;font-size: 10.5pt&quot;&gt;DAGScheduler&lt;br&gt;&lt;/div&gt;" style="rounded=0;whiteSpace=wrap;html=1;strokeColor=#FFFFFF;fillColor=#EDF2F4;fontStyle=1;fontFamily=Georgia;" parent="1" vertex="1">
                    <mxGeometry x="66" y="1477" width="185" height="60" as="geometry"/>
                </mxCell>
                <mxCell id="50" value="" style="endArrow=block;html=1;dashed=1;fontFamily=Georgia;strokeWidth=1;strokeColor=#333333;endFill=1;exitX=1;exitY=0.5;exitDx=0;exitDy=0;" parent="1" source="61" edge="1">
                    <mxGeometry width="50" height="50" relative="1" as="geometry">
                        <mxPoint x="159" y="191" as="sourcePoint"/>
                        <mxPoint x="410" y="180" as="targetPoint"/>
                    </mxGeometry>
                </mxCell>
                <mxCell id="56" value="&lt;div style=&quot;font-size: 10.5pt&quot;&gt;SchedulerBackend&lt;/div&gt;" style="rounded=0;whiteSpace=wrap;html=1;strokeColor=#FFFFFF;fillColor=#EDF2F4;fontStyle=1;fontFamily=Georgia;" parent="1" vertex="1">
                    <mxGeometry x="1066" y="70" width="185" height="60" as="geometry"/>
                </mxCell>
                <mxCell id="57" value="&lt;div style=&quot;font-size: 10.5pt&quot;&gt;RpcEndPointRef&lt;/div&gt;&lt;div style=&quot;font-size: 10.5pt&quot;&gt;(to Driver)&lt;/div&gt;" style="rounded=0;whiteSpace=wrap;html=1;strokeColor=#FFFFFF;fillColor=#EDF2F4;fontStyle=1;fontFamily=Georgia;" parent="1" vertex="1">
                    <mxGeometry x="1316" y="70" width="185" height="60" as="geometry"/>
                </mxCell>
                <mxCell id="58" value="&lt;div style=&quot;font-size: 10.5pt&quot;&gt;DriverEndPoint&lt;/div&gt;" style="rounded=0;whiteSpace=wrap;html=1;strokeColor=#FFFFFF;fillColor=#EDF2F4;fontStyle=1;fontFamily=Georgia;" parent="1" vertex="1">
                    <mxGeometry x="1566" y="70" width="185" height="60" as="geometry"/>
                </mxCell>
                <mxCell id="59" value="&lt;div style=&quot;font-size: 10.5pt&quot;&gt;&lt;div style=&quot;font-size: 10.5pt&quot;&gt;RpcEndPointRef&lt;br&gt;&lt;/div&gt;&lt;div style=&quot;font-size: 10.5pt&quot;&gt;(to Driver)&lt;/div&gt;&lt;/div&gt;" style="rounded=0;whiteSpace=wrap;html=1;strokeColor=#FFFFFF;fillColor=#EDF2F4;fontStyle=1;fontFamily=Georgia;" parent="1" vertex="1">
                    <mxGeometry x="2066" y="70" width="185" height="60" as="geometry"/>
                </mxCell>
                <mxCell id="60" value="&lt;div style=&quot;font-size: 10.5pt&quot;&gt;RpcEndPointRef&lt;br&gt;&lt;/div&gt;&lt;div style=&quot;font-size: 10.5pt&quot;&gt;(to Executor)&lt;/div&gt;" style="rounded=0;whiteSpace=wrap;html=1;strokeColor=#FFFFFF;fillColor=#EDF2F4;fontStyle=1;fontFamily=Georgia;" parent="1" vertex="1">
                    <mxGeometry x="1816" y="70" width="185" height="60" as="geometry"/>
                </mxCell>
                <mxCell id="61" value="&lt;font color=&quot;#ffffff&quot; style=&quot;font-size: 12px&quot;&gt;1&lt;/font&gt;" style="ellipse;whiteSpace=wrap;html=1;aspect=fixed;strokeColor=none;fillColor=#345253;fontSize=12;" parent="1" vertex="1">
                    <mxGeometry x="148.5" y="170" width="20" height="20" as="geometry"/>
                </mxCell>
                <mxCell id="68" style="edgeStyle=orthogonalEdgeStyle;rounded=0;orthogonalLoop=1;jettySize=auto;html=1;dashed=1;fontSize=12;endArrow=block;endFill=1;endSize=6;strokeColor=#333333;" parent="1" source="63" edge="1">
                    <mxGeometry relative="1" as="geometry">
                        <mxPoint x="660" y="230" as="targetPoint"/>
                    </mxGeometry>
                </mxCell>
                <mxCell id="63" value="&lt;font color=&quot;#ffffff&quot; style=&quot;font-size: 12px&quot;&gt;2&lt;/font&gt;" style="ellipse;whiteSpace=wrap;html=1;aspect=fixed;strokeColor=none;fillColor=#345253;fontSize=12;" parent="1" vertex="1">
                    <mxGeometry x="398.5" y="220" width="20" height="20" as="geometry"/>
                </mxCell>
                <mxCell id="67" value="TaskScheduler.submitTasks(&lt;i&gt;&lt;b&gt;TaskSet&lt;/b&gt;&lt;/i&gt;)" style="text;html=1;strokeColor=none;fillColor=none;align=center;verticalAlign=middle;whiteSpace=wrap;rounded=0;fontSize=12;" parent="1" vertex="1">
                    <mxGeometry x="168.5" y="160" width="225" height="20" as="geometry"/>
                </mxCell>
                <mxCell id="69" value="createTaskManager(&lt;i&gt;&lt;b&gt;TaskSet&lt;/b&gt;&lt;/i&gt;)" style="text;html=1;strokeColor=none;fillColor=none;align=center;verticalAlign=middle;whiteSpace=wrap;rounded=0;fontSize=12;" parent="1" vertex="1">
                    <mxGeometry x="417.5" y="210" width="225" height="20" as="geometry"/>
                </mxCell>
                <mxCell id="71" style="edgeStyle=orthogonalEdgeStyle;rounded=0;orthogonalLoop=1;jettySize=auto;html=1;dashed=1;fontSize=12;endArrow=block;endFill=1;endSize=6;strokeColor=#333333;" parent="1" source="70" edge="1">
                    <mxGeometry relative="1" as="geometry">
                        <mxPoint x="910" y="290" as="targetPoint"/>
                    </mxGeometry>
                </mxCell>
                <mxCell id="70" value="&lt;font color=&quot;#ffffff&quot; style=&quot;font-size: 12px&quot;&gt;3&lt;/font&gt;" style="ellipse;whiteSpace=wrap;html=1;aspect=fixed;strokeColor=none;fillColor=#345253;fontSize=12;" parent="1" vertex="1">
                    <mxGeometry x="398.5" y="280" width="20" height="20" as="geometry"/>
                </mxCell>
                <mxCell id="72" value="SchedulableBuilder add TaskManager(&lt;i&gt;&lt;b&gt;TaskSet&lt;/b&gt;&lt;/i&gt;) to &lt;b&gt;&lt;i&gt;Pool&lt;/i&gt;&lt;/b&gt;" style="text;html=1;strokeColor=none;fillColor=none;align=center;verticalAlign=middle;whiteSpace=wrap;rounded=0;fontSize=12;" parent="1" vertex="1">
                    <mxGeometry x="496.75" y="270" width="323.5" height="20" as="geometry"/>
                </mxCell>
                <mxCell id="76" style="edgeStyle=orthogonalEdgeStyle;rounded=0;orthogonalLoop=1;jettySize=auto;html=1;exitX=1;exitY=0.5;exitDx=0;exitDy=0;dashed=1;fontSize=12;endArrow=block;endFill=1;endSize=6;strokeColor=#333333;" parent="1" source="73" edge="1">
                    <mxGeometry relative="1" as="geometry">
                        <mxPoint x="1160" y="350.16666666666674" as="targetPoint"/>
                    </mxGeometry>
                </mxCell>
                <mxCell id="73" value="&lt;font color=&quot;#ffffff&quot; style=&quot;font-size: 12px&quot;&gt;4&lt;/font&gt;" style="ellipse;whiteSpace=wrap;html=1;aspect=fixed;strokeColor=none;fillColor=#345253;fontSize=12;" parent="1" vertex="1">
                    <mxGeometry x="398.5" y="340" width="20" height="20" as="geometry"/>
                </mxCell>
                <mxCell id="74" value="&lt;div style=&quot;font-size: 10.5pt&quot;&gt;SchedulerBackend&lt;/div&gt;" style="rounded=0;whiteSpace=wrap;html=1;strokeColor=#FFFFFF;fillColor=#EDF2F4;fontStyle=1;fontFamily=Georgia;" parent="1" vertex="1">
                    <mxGeometry x="1066" y="1477" width="185" height="60" as="geometry"/>
                </mxCell>
                <mxCell id="75" style="edgeStyle=orthogonalEdgeStyle;rounded=1;orthogonalLoop=1;jettySize=auto;html=1;entryX=0.5;entryY=0;entryDx=0;entryDy=0;dashed=1;fontFamily=Georgia;endArrow=none;endFill=0;strokeColor=#A7BFC9;strokeWidth=1;exitX=0.5;exitY=1;exitDx=0;exitDy=0;" parent="1" source="56" target="74" edge="1">
                    <mxGeometry relative="1" as="geometry">
                        <mxPoint x="1110" y="150" as="sourcePoint"/>
                        <mxPoint x="1110" y="622" as="targetPoint"/>
                    </mxGeometry>
                </mxCell>
                <mxCell id="77" value="SchedulerBackend.reviveOffers" style="text;html=1;strokeColor=none;fillColor=none;align=center;verticalAlign=middle;whiteSpace=wrap;rounded=0;fontSize=12;" parent="1" vertex="1">
                    <mxGeometry x="620" y="330" width="323.5" height="20" as="geometry"/>
                </mxCell>
                <mxCell id="78" value="&lt;div style=&quot;font-size: 10.5pt&quot;&gt;&lt;div style=&quot;font-size: 10.5pt&quot;&gt;RpcEndPointRef&lt;/div&gt;&lt;div style=&quot;font-size: 10.5pt&quot;&gt;(to Driver)&lt;/div&gt;&lt;/div&gt;" style="rounded=0;whiteSpace=wrap;html=1;strokeColor=#FFFFFF;fillColor=#EDF2F4;fontStyle=1;fontFamily=Georgia;" parent="1" vertex="1">
                    <mxGeometry x="1316" y="1477" width="185" height="60" as="geometry"/>
                </mxCell>
                <mxCell id="79" style="edgeStyle=orthogonalEdgeStyle;rounded=1;orthogonalLoop=1;jettySize=auto;html=1;entryX=0.5;entryY=0;entryDx=0;entryDy=0;dashed=1;fontFamily=Georgia;endArrow=none;endFill=0;strokeColor=#A7BFC9;strokeWidth=1;exitX=0.5;exitY=1;exitDx=0;exitDy=0;" parent="1" source="57" target="78" edge="1">
                    <mxGeometry relative="1" as="geometry">
                        <mxPoint x="1400" y="160" as="sourcePoint"/>
                        <mxPoint x="1400" y="632" as="targetPoint"/>
                    </mxGeometry>
                </mxCell>
                <mxCell id="81" style="edgeStyle=orthogonalEdgeStyle;rounded=0;orthogonalLoop=1;jettySize=auto;html=1;dashed=1;fontSize=12;endArrow=block;endFill=1;endSize=6;strokeColor=#333333;" parent="1" source="80" edge="1">
                    <mxGeometry relative="1" as="geometry">
                        <mxPoint x="1410" y="410" as="targetPoint"/>
                    </mxGeometry>
                </mxCell>
                <mxCell id="80" value="&lt;font color=&quot;#ffffff&quot; style=&quot;font-size: 12px&quot;&gt;5&lt;/font&gt;" style="ellipse;whiteSpace=wrap;html=1;aspect=fixed;strokeColor=none;fillColor=#345253;fontSize=12;" parent="1" vertex="1">
                    <mxGeometry x="1148.5" y="400" width="20" height="20" as="geometry"/>
                </mxCell>
                <mxCell id="82" value="RpcEndPointRef.send(&lt;b&gt;&lt;i&gt;ReviveOffers&lt;/i&gt;&lt;/b&gt;)" style="text;html=1;strokeColor=none;fillColor=none;align=center;verticalAlign=middle;whiteSpace=wrap;rounded=0;fontSize=12;" parent="1" vertex="1">
                    <mxGeometry x="1168.5" y="390" width="225" height="20" as="geometry"/>
                </mxCell>
                <mxCell id="83" value="&lt;div style=&quot;font-size: 10.5pt&quot;&gt;DriverEndPoint&lt;br&gt;&lt;/div&gt;" style="rounded=0;whiteSpace=wrap;html=1;strokeColor=#FFFFFF;fillColor=#EDF2F4;fontStyle=1;fontFamily=Georgia;" parent="1" vertex="1">
                    <mxGeometry x="1566" y="1477" width="185" height="60" as="geometry"/>
                </mxCell>
                <mxCell id="84" style="edgeStyle=orthogonalEdgeStyle;rounded=1;orthogonalLoop=1;jettySize=auto;html=1;entryX=0.5;entryY=0;entryDx=0;entryDy=0;dashed=1;fontFamily=Georgia;endArrow=none;endFill=0;strokeColor=#A7BFC9;strokeWidth=1;exitX=0.5;exitY=1;exitDx=0;exitDy=0;" parent="1" source="58" target="83" edge="1">
                    <mxGeometry relative="1" as="geometry">
                        <mxPoint x="1680" y="140" as="sourcePoint"/>
                        <mxPoint x="1680" y="612" as="targetPoint"/>
                    </mxGeometry>
                </mxCell>
                <mxCell id="86" style="edgeStyle=orthogonalEdgeStyle;rounded=0;orthogonalLoop=1;jettySize=auto;html=1;dashed=1;fontSize=12;endArrow=block;endFill=1;endSize=6;strokeColor=#333333;" parent="1" source="85" edge="1">
                    <mxGeometry relative="1" as="geometry">
                        <mxPoint x="1660" y="470" as="targetPoint"/>
                    </mxGeometry>
                </mxCell>
                <mxCell id="85" value="&lt;font color=&quot;#ffffff&quot; style=&quot;font-size: 12px&quot;&gt;6&lt;/font&gt;" style="ellipse;whiteSpace=wrap;html=1;aspect=fixed;strokeColor=none;fillColor=#345253;fontSize=12;" parent="1" vertex="1">
                    <mxGeometry x="1398.5" y="460" width="20" height="20" as="geometry"/>
                </mxCell>
                <mxCell id="87" value="RpcEndPoint.receive(&lt;b&gt;&lt;i&gt;ReviveOffers&lt;/i&gt;&lt;/b&gt;)" style="text;html=1;strokeColor=none;fillColor=none;align=center;verticalAlign=middle;whiteSpace=wrap;rounded=0;fontSize=12;" parent="1" vertex="1">
                    <mxGeometry x="1418.5" y="450" width="225" height="20" as="geometry"/>
                </mxCell>
                <mxCell id="89" style="edgeStyle=orthogonalEdgeStyle;rounded=0;orthogonalLoop=1;jettySize=auto;html=1;dashed=1;fontSize=12;endArrow=block;endFill=1;endSize=6;strokeColor=#333333;" parent="1" source="88" edge="1">
                    <mxGeometry relative="1" as="geometry">
                        <mxPoint x="410" y="530" as="targetPoint"/>
                    </mxGeometry>
                </mxCell>
                <mxCell id="88" value="&lt;font color=&quot;#ffffff&quot; style=&quot;font-size: 12px&quot;&gt;7&lt;br&gt;&lt;/font&gt;" style="ellipse;whiteSpace=wrap;html=1;aspect=fixed;strokeColor=none;fillColor=#345253;fontSize=12;" parent="1" vertex="1">
                    <mxGeometry x="1648.5" y="520" width="20" height="20" as="geometry"/>
                </mxCell>
                <mxCell id="90" value="TaskScheduler.resourceOffers(&lt;b&gt;&lt;i&gt;WorkOffer&lt;/i&gt;&lt;/b&gt;)" style="text;html=1;strokeColor=none;fillColor=none;align=center;verticalAlign=middle;whiteSpace=wrap;rounded=0;fontSize=12;" parent="1" vertex="1">
                    <mxGeometry x="870" y="510" width="323.5" height="20" as="geometry"/>
                </mxCell>
                <mxCell id="92" style="edgeStyle=orthogonalEdgeStyle;rounded=0;orthogonalLoop=1;jettySize=auto;html=1;dashed=1;fontSize=12;endArrow=block;endFill=1;endSize=6;strokeColor=#333333;" parent="1" source="91" edge="1">
                    <mxGeometry relative="1" as="geometry">
                        <mxPoint x="409" y="620" as="targetPoint"/>
                        <Array as="points">
                            <mxPoint x="450" y="590"/>
                            <mxPoint x="450" y="620"/>
                            <mxPoint x="409" y="620"/>
                        </Array>
                    </mxGeometry>
                </mxCell>
                <mxCell id="91" value="&lt;font color=&quot;#ffffff&quot; style=&quot;font-size: 12px&quot;&gt;8&lt;/font&gt;" style="ellipse;whiteSpace=wrap;html=1;aspect=fixed;strokeColor=none;fillColor=#345253;fontSize=12;" parent="1" vertex="1">
                    <mxGeometry x="398.5" y="580" width="20" height="20" as="geometry"/>
                </mxCell>
                <mxCell id="97" style="edgeStyle=orthogonalEdgeStyle;rounded=0;orthogonalLoop=1;jettySize=auto;html=1;dashed=1;fontSize=12;endArrow=block;endFill=1;endSize=6;strokeColor=#333333;" parent="1" source="95" edge="1">
                    <mxGeometry relative="1" as="geometry">
                        <mxPoint x="660" y="670" as="targetPoint"/>
                    </mxGeometry>
                </mxCell>
                <mxCell id="95" value="&lt;font color=&quot;#ffffff&quot; style=&quot;font-size: 12px&quot;&gt;9&lt;/font&gt;" style="ellipse;whiteSpace=wrap;html=1;aspect=fixed;strokeColor=none;fillColor=#345253;fontSize=12;" parent="1" vertex="1">
                    <mxGeometry x="398.5" y="660" width="20" height="20" as="geometry"/>
                </mxCell>
                <mxCell id="96" value="get TaskManager From &lt;b&gt;&lt;i&gt;Pool&lt;/i&gt;&lt;/b&gt;" style="text;html=1;strokeColor=none;fillColor=none;align=center;verticalAlign=middle;whiteSpace=wrap;rounded=0;fontSize=12;" parent="1" vertex="1">
                    <mxGeometry x="450" y="595" width="160" height="20" as="geometry"/>
                </mxCell>
                <mxCell id="98" value="TaskManager.resourceOffer" style="text;html=1;strokeColor=none;fillColor=none;align=center;verticalAlign=middle;whiteSpace=wrap;rounded=0;fontSize=12;" parent="1" vertex="1">
                    <mxGeometry x="450" y="650" width="160" height="20" as="geometry"/>
                </mxCell>
                <mxCell id="101" style="edgeStyle=orthogonalEdgeStyle;rounded=0;orthogonalLoop=1;jettySize=auto;html=1;dashed=1;fontSize=12;endArrow=block;endFill=1;endSize=6;strokeColor=#333333;" parent="1" source="99" edge="1">
                    <mxGeometry relative="1" as="geometry">
                        <mxPoint x="410" y="730" as="targetPoint"/>
                    </mxGeometry>
                </mxCell>
                <mxCell id="99" value="&lt;font color=&quot;#ffffff&quot; style=&quot;font-size: 12px&quot;&gt;10&lt;/font&gt;" style="ellipse;whiteSpace=wrap;html=1;aspect=fixed;strokeColor=none;fillColor=#345253;fontSize=12;" parent="1" vertex="1">
                    <mxGeometry x="648.5" y="720" width="20" height="20" as="geometry"/>
                </mxCell>
                <mxCell id="102" value="return &lt;b&gt;&lt;i&gt;TaskDescription&lt;/i&gt;&lt;/b&gt;" style="text;html=1;strokeColor=none;fillColor=none;align=center;verticalAlign=middle;whiteSpace=wrap;rounded=0;fontSize=12;" parent="1" vertex="1">
                    <mxGeometry x="451" y="710" width="160" height="20" as="geometry"/>
                </mxCell>
                <mxCell id="104" style="edgeStyle=orthogonalEdgeStyle;rounded=0;orthogonalLoop=1;jettySize=auto;html=1;exitX=1;exitY=0.5;exitDx=0;exitDy=0;dashed=1;fontSize=12;endArrow=block;endFill=1;endSize=6;strokeColor=#333333;" parent="1" source="103" edge="1">
                    <mxGeometry relative="1" as="geometry">
                        <mxPoint x="1659" y="790" as="targetPoint"/>
                    </mxGeometry>
                </mxCell>
                <mxCell id="103" value="&lt;font color=&quot;#ffffff&quot; style=&quot;font-size: 12px&quot;&gt;11&lt;/font&gt;" style="ellipse;whiteSpace=wrap;html=1;aspect=fixed;strokeColor=none;fillColor=#345253;fontSize=12;" parent="1" vertex="1">
                    <mxGeometry x="398.5" y="780" width="20" height="20" as="geometry"/>
                </mxCell>
                <mxCell id="105" value="return Seq[Seq[&lt;b&gt;&lt;i&gt;TaskDescription&lt;/i&gt;&lt;/b&gt;]]" style="text;html=1;strokeColor=none;fillColor=none;align=center;verticalAlign=middle;whiteSpace=wrap;rounded=0;fontSize=12;" parent="1" vertex="1">
                    <mxGeometry x="929.75" y="770" width="204" height="20" as="geometry"/>
                </mxCell>
                <mxCell id="106" value="&lt;div style=&quot;font-size: 10.5pt&quot;&gt;ExecutorBackend&lt;br&gt;&lt;/div&gt;" style="rounded=0;whiteSpace=wrap;html=1;strokeColor=#FFFFFF;fillColor=#EDF2F4;fontStyle=1;fontFamily=Georgia;" parent="1" vertex="1">
                    <mxGeometry x="2316" y="70" width="185" height="60" as="geometry"/>
                </mxCell>
                <mxCell id="110" style="edgeStyle=orthogonalEdgeStyle;rounded=0;orthogonalLoop=1;jettySize=auto;html=1;dashed=1;fontSize=12;endArrow=block;endFill=1;endSize=6;strokeColor=#333333;" parent="1" source="107" edge="1">
                    <mxGeometry relative="1" as="geometry">
                        <mxPoint x="1909.6857561383927" y="850" as="targetPoint"/>
                    </mxGeometry>
                </mxCell>
                <mxCell id="107" value="&lt;font color=&quot;#ffffff&quot; style=&quot;font-size: 12px&quot;&gt;12&lt;br&gt;&lt;/font&gt;" style="ellipse;whiteSpace=wrap;html=1;aspect=fixed;strokeColor=none;fillColor=#345253;fontSize=12;" parent="1" vertex="1">
                    <mxGeometry x="1648.5" y="840" width="20" height="20" as="geometry"/>
                </mxCell>
                <mxCell id="108" value="&lt;div style=&quot;font-size: 10.5pt&quot;&gt;&lt;div style=&quot;font-size: 10.5pt&quot;&gt;RpcEndPointRef&lt;br&gt;&lt;/div&gt;&lt;div style=&quot;font-size: 10.5pt&quot;&gt;(to Executor)&lt;/div&gt;&lt;/div&gt;" style="rounded=0;whiteSpace=wrap;html=1;strokeColor=#FFFFFF;fillColor=#EDF2F4;fontStyle=1;fontFamily=Georgia;" parent="1" vertex="1">
                    <mxGeometry x="1816" y="1477" width="185" height="60" as="geometry"/>
                </mxCell>
                <mxCell id="109" style="edgeStyle=orthogonalEdgeStyle;rounded=1;orthogonalLoop=1;jettySize=auto;html=1;entryX=0.5;entryY=0;entryDx=0;entryDy=0;dashed=1;fontFamily=Georgia;endArrow=none;endFill=0;strokeColor=#A7BFC9;strokeWidth=1;exitX=0.5;exitY=1;exitDx=0;exitDy=0;" parent="1" source="60" target="108" edge="1">
                    <mxGeometry relative="1" as="geometry">
                        <mxPoint x="1854" y="164" as="sourcePoint"/>
                        <mxPoint x="1854" y="1164" as="targetPoint"/>
                    </mxGeometry>
                </mxCell>
                <mxCell id="111" value="RpcEndPointRef.send(&lt;b&gt;&lt;i&gt;LaunchTask&lt;/i&gt;&lt;/b&gt;)" style="text;html=1;strokeColor=none;fillColor=none;align=center;verticalAlign=middle;whiteSpace=wrap;rounded=0;fontSize=12;" parent="1" vertex="1">
                    <mxGeometry x="1668.5" y="830" width="225" height="20" as="geometry"/>
                </mxCell>
                <mxCell id="112" value="&lt;div style=&quot;font-size: 10.5pt&quot;&gt;Executor&lt;/div&gt;" style="rounded=0;whiteSpace=wrap;html=1;strokeColor=#FFFFFF;fillColor=#EDF2F4;fontStyle=1;fontFamily=Georgia;" parent="1" vertex="1">
                    <mxGeometry x="2566" y="70" width="185" height="60" as="geometry"/>
                </mxCell>
                <mxCell id="113" value="&lt;div style=&quot;font-size: 10.5pt&quot;&gt;ExecutorBackend&lt;br&gt;&lt;/div&gt;" style="rounded=0;whiteSpace=wrap;html=1;strokeColor=#FFFFFF;fillColor=#EDF2F4;fontStyle=1;fontFamily=Georgia;" parent="1" vertex="1">
                    <mxGeometry x="2316" y="1477" width="185" height="60" as="geometry"/>
                </mxCell>
                <mxCell id="114" style="edgeStyle=orthogonalEdgeStyle;rounded=1;orthogonalLoop=1;jettySize=auto;html=1;entryX=0.5;entryY=0;entryDx=0;entryDy=0;dashed=1;fontFamily=Georgia;endArrow=none;endFill=0;strokeColor=#A7BFC9;strokeWidth=1;exitX=0.5;exitY=1;exitDx=0;exitDy=0;" parent="1" source="106" target="113" edge="1">
                    <mxGeometry relative="1" as="geometry">
                        <mxPoint x="2262" y="147" as="sourcePoint"/>
                        <mxPoint x="2262" y="1147" as="targetPoint"/>
                    </mxGeometry>
                </mxCell>
                <mxCell id="115" value="&lt;div style=&quot;font-size: 10.5pt&quot;&gt;Executor&lt;/div&gt;" style="rounded=0;whiteSpace=wrap;html=1;strokeColor=#FFFFFF;fillColor=#EDF2F4;fontStyle=1;fontFamily=Georgia;" parent="1" vertex="1">
                    <mxGeometry x="2566" y="1477" width="185" height="60" as="geometry"/>
                </mxCell>
                <mxCell id="116" style="edgeStyle=orthogonalEdgeStyle;rounded=1;orthogonalLoop=1;jettySize=auto;html=1;entryX=0.5;entryY=0;entryDx=0;entryDy=0;dashed=1;fontFamily=Georgia;endArrow=none;endFill=0;strokeColor=#A7BFC9;strokeWidth=1;exitX=0.5;exitY=1;exitDx=0;exitDy=0;" parent="1" source="112" target="115" edge="1">
                    <mxGeometry relative="1" as="geometry">
                        <mxPoint x="2635" y="147" as="sourcePoint"/>
                        <mxPoint x="2635" y="1147" as="targetPoint"/>
                    </mxGeometry>
                </mxCell>
                <mxCell id="117" value="&lt;div style=&quot;font-size: 10.5pt&quot;&gt;&lt;div style=&quot;font-size: 10.5pt&quot;&gt;RpcEndPointRef&lt;br&gt;&lt;/div&gt;&lt;div style=&quot;font-size: 10.5pt&quot;&gt;(to Driver)&lt;/div&gt;&lt;/div&gt;" style="rounded=0;whiteSpace=wrap;html=1;strokeColor=#FFFFFF;fillColor=#EDF2F4;fontStyle=1;fontFamily=Georgia;" parent="1" vertex="1">
                    <mxGeometry x="2066" y="1477" width="185" height="60" as="geometry"/>
                </mxCell>
                <mxCell id="118" style="edgeStyle=orthogonalEdgeStyle;rounded=1;orthogonalLoop=1;jettySize=auto;html=1;entryX=0.5;entryY=0;entryDx=0;entryDy=0;dashed=1;fontFamily=Georgia;endArrow=none;endFill=0;strokeColor=#A7BFC9;strokeWidth=1;exitX=0.5;exitY=1;exitDx=0;exitDy=0;" parent="1" source="59" target="117" edge="1">
                    <mxGeometry relative="1" as="geometry">
                        <mxPoint x="2043" y="148" as="sourcePoint"/>
                        <mxPoint x="2043" y="1148" as="targetPoint"/>
                    </mxGeometry>
                </mxCell>
                <mxCell id="120" style="edgeStyle=orthogonalEdgeStyle;rounded=0;orthogonalLoop=1;jettySize=auto;html=1;dashed=1;fontSize=12;endArrow=block;endFill=1;endSize=6;strokeColor=#333333;" parent="1" source="119" edge="1">
                    <mxGeometry relative="1" as="geometry">
                        <mxPoint x="2408" y="910" as="targetPoint"/>
                    </mxGeometry>
                </mxCell>
                <mxCell id="119" value="&lt;font color=&quot;#ffffff&quot; style=&quot;font-size: 12px&quot;&gt;13&lt;br&gt;&lt;/font&gt;" style="ellipse;whiteSpace=wrap;html=1;aspect=fixed;strokeColor=none;fillColor=#345253;fontSize=12;" parent="1" vertex="1">
                    <mxGeometry x="1898.5" y="900" width="20" height="20" as="geometry"/>
                </mxCell>
                <mxCell id="121" value="RpcEndPoint.receive(&lt;b&gt;&lt;i&gt;LaunchTask&lt;/i&gt;&lt;/b&gt;)" style="text;html=1;strokeColor=none;fillColor=none;align=center;verticalAlign=middle;whiteSpace=wrap;rounded=0;fontSize=12;" parent="1" vertex="1">
                    <mxGeometry x="2046" y="890" width="225" height="20" as="geometry"/>
                </mxCell>
                <mxCell id="126" style="edgeStyle=orthogonalEdgeStyle;rounded=0;orthogonalLoop=1;jettySize=auto;html=1;dashed=1;fontSize=12;endArrow=block;endFill=1;endSize=6;strokeColor=#333333;" parent="1" source="122" edge="1">
                    <mxGeometry relative="1" as="geometry">
                        <mxPoint x="2658.4445461697046" y="970" as="targetPoint"/>
                    </mxGeometry>
                </mxCell>
                <mxCell id="122" value="&lt;font color=&quot;#ffffff&quot; style=&quot;font-size: 12px&quot;&gt;14&lt;br&gt;&lt;/font&gt;" style="ellipse;whiteSpace=wrap;html=1;aspect=fixed;strokeColor=none;fillColor=#345253;fontSize=12;" parent="1" vertex="1">
                    <mxGeometry x="2398.5" y="960" width="20" height="20" as="geometry"/>
                </mxCell>
                <mxCell id="124" value="Executor.launchTask(&lt;i&gt;&lt;b&gt;TaskDecription&lt;/b&gt;&lt;/i&gt;)" style="text;html=1;strokeColor=none;fillColor=none;align=center;verticalAlign=middle;whiteSpace=wrap;rounded=0;fontSize=12;" parent="1" vertex="1">
                    <mxGeometry x="2418.5" y="950" width="225" height="20" as="geometry"/>
                </mxCell>
                <mxCell id="128" style="edgeStyle=orthogonalEdgeStyle;rounded=0;orthogonalLoop=1;jettySize=auto;html=1;dashed=1;fontSize=12;endArrow=block;endFill=1;endSize=6;strokeColor=#333333;" parent="1" source="127" edge="1">
                    <mxGeometry relative="1" as="geometry">
                        <mxPoint x="2409.1725484913795" y="1030" as="targetPoint"/>
                    </mxGeometry>
                </mxCell>
                <mxCell id="127" value="&lt;font color=&quot;#ffffff&quot; style=&quot;font-size: 12px&quot;&gt;15&lt;br&gt;&lt;/font&gt;" style="ellipse;whiteSpace=wrap;html=1;aspect=fixed;strokeColor=none;fillColor=#345253;fontSize=12;" parent="1" vertex="1">
                    <mxGeometry x="2648.5" y="1020" width="20" height="20" as="geometry"/>
                </mxCell>
                <mxCell id="129" value="ExecutorBackend.statusUpdate" style="text;html=1;strokeColor=none;fillColor=none;align=center;verticalAlign=middle;whiteSpace=wrap;rounded=0;fontSize=12;" parent="1" vertex="1">
                    <mxGeometry x="2418.5" y="1010" width="225" height="20" as="geometry"/>
                </mxCell>
                <mxCell id="131" style="edgeStyle=orthogonalEdgeStyle;rounded=0;orthogonalLoop=1;jettySize=auto;html=1;dashed=1;fontSize=12;endArrow=block;endFill=1;endSize=6;strokeColor=#333333;" parent="1" source="130" edge="1">
                    <mxGeometry relative="1" as="geometry">
                        <mxPoint x="2158.800048828125" y="1090" as="targetPoint"/>
                    </mxGeometry>
                </mxCell>
                <mxCell id="130" value="&lt;font color=&quot;#ffffff&quot; style=&quot;font-size: 12px&quot;&gt;16&lt;br&gt;&lt;/font&gt;" style="ellipse;whiteSpace=wrap;html=1;aspect=fixed;strokeColor=none;fillColor=#345253;fontSize=12;" parent="1" vertex="1">
                    <mxGeometry x="2398.5" y="1080" width="20" height="20" as="geometry"/>
                </mxCell>
                <mxCell id="132" value="RpcEndPointRef.send(&lt;b&gt;&lt;i&gt;StatusUpdate&lt;/i&gt;&lt;/b&gt;)" style="text;html=1;strokeColor=none;fillColor=none;align=center;verticalAlign=middle;whiteSpace=wrap;rounded=0;fontSize=12;" parent="1" vertex="1">
                    <mxGeometry x="2171" y="1070" width="225" height="20" as="geometry"/>
                </mxCell>
                <mxCell id="134" style="edgeStyle=orthogonalEdgeStyle;rounded=0;orthogonalLoop=1;jettySize=auto;html=1;exitX=0;exitY=0.5;exitDx=0;exitDy=0;dashed=1;fontSize=12;endArrow=block;endFill=1;endSize=6;strokeColor=#333333;" parent="1" source="133" edge="1">
                    <mxGeometry relative="1" as="geometry">
                        <mxPoint x="1659.3792472050109" y="1149.8275862068965" as="targetPoint"/>
                    </mxGeometry>
                </mxCell>
                <mxCell id="133" value="&lt;font color=&quot;#ffffff&quot; style=&quot;font-size: 12px&quot;&gt;17&lt;br&gt;&lt;/font&gt;" style="ellipse;whiteSpace=wrap;html=1;aspect=fixed;strokeColor=none;fillColor=#345253;fontSize=12;" parent="1" vertex="1">
                    <mxGeometry x="2148.5" y="1140" width="20" height="20" as="geometry"/>
                </mxCell>
                <mxCell id="135" value="RpcEndPoint.receive(&lt;b&gt;&lt;i&gt;StatusUpdate&lt;/i&gt;&lt;/b&gt;)" style="text;html=1;strokeColor=none;fillColor=none;align=center;verticalAlign=middle;whiteSpace=wrap;rounded=0;fontSize=12;" parent="1" vertex="1">
                    <mxGeometry x="1796" y="1130" width="225" height="20" as="geometry"/>
                </mxCell>
                <mxCell id="137" style="edgeStyle=orthogonalEdgeStyle;rounded=0;orthogonalLoop=1;jettySize=auto;html=1;exitX=0;exitY=0.5;exitDx=0;exitDy=0;dashed=1;fontSize=12;endArrow=block;endFill=1;endSize=6;strokeColor=#333333;" parent="1" source="136" edge="1">
                    <mxGeometry relative="1" as="geometry">
                        <mxPoint x="409.2000503540039" y="1210" as="targetPoint"/>
                    </mxGeometry>
                </mxCell>
                <mxCell id="136" value="&lt;font color=&quot;#ffffff&quot; style=&quot;font-size: 12px&quot;&gt;18&lt;br&gt;&lt;/font&gt;" style="ellipse;whiteSpace=wrap;html=1;aspect=fixed;strokeColor=none;fillColor=#345253;fontSize=12;" parent="1" vertex="1">
                    <mxGeometry x="1648.5" y="1200" width="20" height="20" as="geometry"/>
                </mxCell>
                <mxCell id="138" value="TaskScheduler.statusUpdate" style="text;html=1;strokeColor=none;fillColor=none;align=center;verticalAlign=middle;whiteSpace=wrap;rounded=0;fontSize=12;" parent="1" vertex="1">
                    <mxGeometry x="929.75" y="1190" width="204" height="20" as="geometry"/>
                </mxCell>
                <mxCell id="140" style="edgeStyle=orthogonalEdgeStyle;rounded=0;orthogonalLoop=1;jettySize=auto;html=1;dashed=1;fontSize=12;endArrow=block;endFill=1;endSize=6;strokeColor=#333333;" parent="1" source="139" edge="1">
                    <mxGeometry relative="1" as="geometry">
                        <mxPoint x="659.1034314385777" y="1270" as="targetPoint"/>
                    </mxGeometry>
                </mxCell>
                <mxCell id="139" value="&lt;font color=&quot;#ffffff&quot; style=&quot;font-size: 12px&quot;&gt;19&lt;/font&gt;" style="ellipse;whiteSpace=wrap;html=1;aspect=fixed;strokeColor=none;fillColor=#345253;fontSize=12;" parent="1" vertex="1">
                    <mxGeometry x="398.5" y="1260" width="20" height="20" as="geometry"/>
                </mxCell>
                <mxCell id="141" value="TaskManager.handleSuccessfulTask" style="text;html=1;strokeColor=none;fillColor=none;align=center;verticalAlign=middle;whiteSpace=wrap;rounded=0;fontSize=12;" parent="1" vertex="1">
                    <mxGeometry x="451" y="1250" width="160" height="20" as="geometry"/>
                </mxCell>
                <mxCell id="143" style="edgeStyle=orthogonalEdgeStyle;rounded=0;orthogonalLoop=1;jettySize=auto;html=1;exitX=0;exitY=0.5;exitDx=0;exitDy=0;dashed=1;fontSize=12;endArrow=block;endFill=1;endSize=6;strokeColor=#333333;" parent="1" source="142" edge="1">
                    <mxGeometry relative="1" as="geometry">
                        <mxPoint x="158.66665395100927" y="1330.166666666667" as="targetPoint"/>
                    </mxGeometry>
                </mxCell>
                <mxCell id="142" value="&lt;font color=&quot;#ffffff&quot; style=&quot;font-size: 12px&quot;&gt;20&lt;/font&gt;" style="ellipse;whiteSpace=wrap;html=1;aspect=fixed;strokeColor=none;fillColor=#345253;fontSize=12;" parent="1" vertex="1">
                    <mxGeometry x="648.5" y="1320" width="20" height="20" as="geometry"/>
                </mxCell>
                <mxCell id="144" value="DAGScheduler.taskEnded" style="text;html=1;strokeColor=none;fillColor=none;align=center;verticalAlign=middle;whiteSpace=wrap;rounded=0;fontSize=12;" parent="1" vertex="1">
                    <mxGeometry x="328.5" y="1310" width="160" height="20" as="geometry"/>
                </mxCell>
                <mxCell id="146" style="edgeStyle=orthogonalEdgeStyle;rounded=0;orthogonalLoop=1;jettySize=auto;html=1;dashed=1;fontSize=12;endArrow=block;endFill=1;endSize=6;strokeColor=#333333;" parent="1" source="145" edge="1">
                    <mxGeometry relative="1" as="geometry">
                        <mxPoint x="159" y="1422" as="targetPoint"/>
                        <Array as="points">
                            <mxPoint x="200" y="1390"/>
                            <mxPoint x="200" y="1422"/>
                            <mxPoint x="159" y="1422"/>
                        </Array>
                    </mxGeometry>
                </mxCell>
                <mxCell id="145" value="&lt;font color=&quot;#ffffff&quot; style=&quot;font-size: 12px&quot;&gt;21&lt;/font&gt;" style="ellipse;whiteSpace=wrap;html=1;aspect=fixed;strokeColor=none;fillColor=#345253;fontSize=12;" parent="1" vertex="1">
                    <mxGeometry x="148.5" y="1380" width="20" height="20" as="geometry"/>
                </mxCell>
                <mxCell id="147" value="handleTaskCompletion" style="text;html=1;strokeColor=none;fillColor=none;align=center;verticalAlign=middle;whiteSpace=wrap;rounded=0;fontSize=12;" parent="1" vertex="1">
                    <mxGeometry x="201" y="1397" width="131" height="20" as="geometry"/>
                </mxCell>
            </root>
        </mxGraphModel>
    </diagram>
</mxfile>